<svg width="1600" height="1600" viewBox="0 0 1600 1600" fill="none" xmlns="http://www.w3.org/2000/svg">
	<rect width="1600" height="1600" fill="url(#paint0_linear_1_42)" />
	<ellipse cx="800" cy="786.5" rx="195" ry="193.5" fill="white" />
	<path d="M719.634 1136.67C919.79 1192.37 1164.53 1178.13 1243.37 985.909V985.909C1284.77 884.959 1290.54 772.917 1259.74 668.246C1228.93 563.575 1163.38 472.524 1073.9 410.097C984.408 347.67 876.323 317.594 767.454 324.825C658.584 332.056 555.426 376.163 474.982 449.876C394.537 523.59 341.608 622.511 324.915 730.336C308.223 838.162 328.764 948.457 383.154 1043.04V1043.04C486.72 1223.15 731.193 1204.9 922.225 1123.22L1243.37 985.909C1221.37 977.29 720.957 876.046 709.183 855.569C697.408 835.092 692.961 811.215 696.575 787.872C700.188 764.53 711.647 743.115 729.062 727.157C746.477 711.199 768.809 701.65 792.378 700.085C815.947 698.519 839.346 705.03 858.718 718.545C878.091 732.06 892.281 751.771 898.95 774.431C905.619 797.09 904.369 821.346 895.406 843.2C886.443 865.054 403.813 1031.59 383.154 1043.04L719.634 1136.67Z" fill="#FF698E" />
	<defs>
		<linearGradient id="paint0_linear_1_42" x1="800" y1="0" x2="800" y2="1600" gradientUnits="userSpaceOnUse">
			<stop stop-color="#C90C3B" />
		</linearGradient>
	</defs>
</svg>