<?xml version="1.0" standalone="no"?>
<!DOCTYPE svg PUBLIC "-//W3C//DTD SVG 20010904//EN"
 "http://www.w3.org/TR/2001/REC-SVG-20010904/DTD/svg10.dtd">
<svg version="1.0" xmlns="http://www.w3.org/2000/svg"
 width="180.000000pt" height="180.000000pt" viewBox="0 0 180.000000 180.000000"
 preserveAspectRatio="xMidYMid meet">

<g transform="translate(0.000000,180.000000) scale(0.100000,-0.100000)"
fill="#000000" stroke="none">
<path d="M0 1188 l1 -613 45 110 c24 61 117 291 206 513 157 392 162 402 188
402 17 0 31 -7 35 -17 3 -10 42 -115 86 -233 44 -118 114 -305 155 -415 246
-659 291 -781 287 -787 -5 -10 -194 -10 -209 0 -6 4 -32 71 -58 150 l-48 142
-265 -2 -266 -3 -51 -145 c-48 -136 -53 -145 -79 -148 -27 -3 -27 -4 -27 -73
l0 -69 900 0 900 0 0 131 0 131 -37 -32 c-137 -121 -400 -146 -604 -59 -26 12
-53 27 -58 33 -7 8 -1 37 20 92 17 43 34 82 37 86 4 4 34 -6 67 -22 154 -76
296 -77 391 -5 103 78 100 261 -5 344 -21 17 -112 67 -202 112 -230 116 -281
170 -315 332 -37 175 43 340 204 419 l67 33 155 0 c135 -1 163 -4 215 -23 32
-12 61 -22 62 -22 2 0 3 56 3 125 l0 125 -900 0 -900 0 0 -612z"/>
<path d="M1418 1420 c-107 -32 -161 -168 -111 -281 29 -65 82 -105 231 -175
128 -61 205 -107 244 -146 17 -17 18 -9 17 300 0 235 -3 309 -11 287 -18 -51
-26 -56 -61 -35 -83 48 -235 73 -309 50z"/>
<path d="M413 1158 c-7 -18 -53 -149 -102 -291 -50 -142 -91 -263 -91 -268 0
-9 392 -13 402 -4 3 3 -23 95 -58 203 -35 108 -78 241 -95 295 -17 53 -34 97
-38 97 -4 0 -12 -15 -18 -32z"/>
</g>
</svg>
